999
DXF from OpenSCAD
  0
SECTION
  2
HEADER
  9
$ACADVER
  1
AC1006
  9
$INSBASE
 10
0.0
 20
0.0
 30
0.0
  9
$EXTMIN
 10
-78.7203
 20
-68.8475
  9
$EXTMAX
 10
78.7203
 20
68.8475
  9
$LINMIN
 10
-78.7203
 20
-68.8475
  9
$LINMAX
 10
78.7203
 20
68.8475
  0
ENDSEC
  0
SECTION
  2
TABLES
  0
TABLE
  2
LTYPE
 70
1
  0
LTYPE
  2
CONTINUOUS
 70
64
  3
Solid line
 72
65
 73
0
 40
0.000000
  0
ENDTAB
  0
TABLE
  2
LAYER
 70
6
  0
LAYER
  2
0
 70
64
 62
7
  6
CONTINUOUS
  0
ENDTAB
  0
TABLE
  2
STYLE
 70
0
  0
ENDTAB
  0
ENDSEC
  0
SECTION
  2
BLOCKS
  0
ENDSEC
  0
SECTION
  2
ENTITIES
  0
LWPOLYLINE
100
AcDbEntity
  8
0
100
AcDbPolyline
 90
255
 70
1
 10
49.6987
 20
-68.8284
 10
50.1318
 20
-68.7714
 10
50.5576
 20
-68.6769
 10
51.4788
 20
-68.3309
 10
52.3089
 20
-67.8151
 10
53.0213
 20
-67.1462
 10
53.5931
 20
-66.3456
 10
78.0643
 20
-23.9177
 10
78.4691
 20
-23.024
 10
78.4787
 20
-22.9954
 10
78.6907
 20
-22.0679
 10
78.6945
 20
-22.0374
 10
78.7203
 20
-21.0883
 10
78.7191
 20
-21.0714
 10
78.5599
 20
-20.1251
 10
78.5592
 20
-20.1223
 10
78.2243
 20
-19.226
 10
78.2141
 20
-19.2052
 10
77.7197
 20
-18.402
 10
77.6975
 20
-18.3728
 10
77.0535
 20
-17.6806
 10
77.0291
 20
-17.659
 10
76.2332
 20
-17.0896
 10
73.6363
 20
-15.5903
 10
70.9963
 20
-14.0534
 10
70.3724
 20
-13.6834
 10
68.5164
 20
-12.5804
 10
67.7627
 20
-12.122
 10
66.2128
 20
-11.1755
 10
65.3682
 20
-10.6448
 10
64.0801
 20
-9.83013
 10
63.192
 20
-9.24877
 10
62.1088
 20
-8.53289
 10
61.2376
 20
-7.93257
 10
60.2973
 20
-7.27625
 10
59.4956
 20
-6.68778
 10
58.6509
 20
-6.05717
 10
57.9461
 20
-5.49819
 10
57.1795
 20
-4.87675
 10
56.5617
 20
-4.3381
 10
56.5487
 20
-4.32645
 10
55.6895
 20
-3.54003
 10
55.3405
 20
-3.19835
 10
55.14
 20
-2.99495
 10
55.0419
 20
-2.89142
 10
54.4863
 20
-2.29997
 10
54.292
 20
-2.08064
 10
54.0519
 20
-1.79711
 10
53.7591
 20
-1.42398
 10
53.4401
 20
-1.01109
 10
53.4096
 20
-0.969956
 10
53.1525
 20
-0.602319
 10
52.5916
 20
0.333459
 10
52.4085
 20
0.668918
 10
52.142
 20
1.29914
 10
51.9839
 20
1.70542
 10
51.9273
 20
1.88912
 10
51.7706
 20
2.50447
 10
51.7173
 20
2.73435
 10
51.6691
 20
3.00163
 10
51.5794
 20
4.06487
 10
51.5794
 20
53.4763
 10
51.5346
 20
54.1463
 10
51.5332
 20
54.1566
 10
51.4008
 20
54.8028
 10
51.3975
 20
54.8148
 10
51.1797
 20
55.4372
 10
51.177
 20
55.4435
 10
50.8762
 20
56.0347
 10
50.8758
 20
56.0353
 10
50.4996
 20
56.5809
 10
50.4944
 20
56.5876
 10
50.052
 20
57.0744
 10
50.0424
 20
57.0837
 10
49.5379
 20
57.5074
 10
49.5294
 20
57.5136
 10
48.9618
 20
57.8723
 10
47.3912
 20
58.7234
 10
45.0026
 20
59.9597
 10
44.7151
 20
60.101
 10
42.5501
 20
61.1143
 10
41.9942
 20
61.3607
 10
40.0324
 20
62.1874
 10
39.2306
 20
62.5066
 10
37.4483
 20
63.1793
 10
36.4264
 20
63.5427
 10
34.7964
 20
64.0902
 10
33.5835
 20
64.4729
 10
32.0755
 20
64.9205
 10
30.704
 20
65.3014
 10
29.2844
 20
65.6704
 10
27.79
 20
66.0321
 10
26.4217
 20
66.3401
 10
24.8443
 20
66.6688
 10
23.4862
 20
66.93
 10
21.9013
 20
67.2103
 10
21.8743
 20
67.2147
 10
21.8715
 20
67.2151
 10
20.4765
 20
67.4404
 10
18.8851
 20
67.674
 10
17.3915
 20
67.8715
 10
15.9108
 20
68.0473
 10
14.2298
 20
68.2236
 10
12.8663
 20
68.3491
 10
11.9696
 20
68.4233
 10
11.9072
 20
68.4282
 10
11.7219
 20
68.4426
 10
11.7218
 20
68.4426
 10
11.7217
 20
68.4426
 10
11.4213
 20
68.4655
 10
11.2188
 20
68.4803
 10
11.0167
 20
68.4951
 10
10.9902
 20
68.497
 10
10.5237
 20
68.5294
 10
9.96141
 20
68.5663
 10
9.96096
 20
68.5663
 10
9.96091
 20
68.5663
 10
9.87804
 20
68.5716
 10
9.3509
 20
68.6036
 10
8.71462
 20
68.6395
 10
7.67138
 20
68.6919
 10
7.2869
 20
68.7067
 10
6.82322
 20
68.7286
 10
5.50073
 20
68.7757
 10
4.27205
 20
68.8086
 10
2.28462
 20
68.8404
 10
1.51471
 20
68.8458
 10
0.790966
 20
68.8475
 10
0.410137
 20
68.847
 10
0.0649452
 20
68.8458
 10
-0.0408828
 20
68.8452
 10
-0.239063
 20
68.8441
 10
-0.368803
 20
68.8431
 10
-0.495846
 20
68.8422
 10
-0.667644
 20
68.8407
 10
-0.700428
 20
68.8404
 10
-0.849468
 20
68.8389
 10
-0.939938
 20
68.8379
 10
-0.970379
 20
68.8376
 10
-2.90315
 20
68.8045
 10
-3.00378
 20
68.8021
 10
-6.70334
 20
68.6749
 10
-6.89641
 20
68.6659
 10
-10.6127
 20
68.4572
 10
-10.8889
 20
68.4385
 10
-14.6345
 20
68.1502
 10
-14.9834
 20
68.1195
 10
-18.7717
 20
67.7526
 10
-19.1817
 20
67.7086
 10
-23.0276
 20
67.2631
 10
-23.4861
 20
67.2056
 10
-27.4052
 20
66.6805
 10
-27.8983
 20
66.61
 10
-31.9076
 20
66.0035
 10
-32.4206
 20
65.9216
 10
-36.5381
 20
65.2308
 10
-37.0548
 20
65.1401
 10
-41.2998
 20
64.361
 10
-41.803
 20
64.2651
 10
-46.1957
 20
63.393
 10
-46.6672
 20
63.2963
 10
-51.229
 20
62.3254
 10
-51.6495
 20
62.2333
 10
-56.4029
 20
61.157
 10
-56.7518
 20
61.076
 10
-61.7205
 20
59.8865
 10
-61.9762
 20
59.8238
 10
-67.1849
 20
58.5125
 10
-67.3247
 20
58.4766
 10
-72.7992
 20
57.0339
 10
-75.0197
 20
56.4363
 10
-75.7884
 20
56.1603
 10
-75.8043
 20
56.153
 10
-76.502
 20
55.762
 10
-76.5172
 20
55.7518
 10
-77.1407
 20
55.2528
 10
-77.1481
 20
55.2458
 10
-77.6871
 20
54.6484
 10
-77.6886
 20
54.6464
 10
-78.1239
 20
53.9727
 10
-78.1303
 20
53.9608
 10
-78.4485
 20
53.2319
 10
-78.4556
 20
53.2112
 10
-78.6507
 20
52.4393
 10
-78.6537
 20
52.4214
 10
-78.7203
 20
51.608
 10
-78.7203
 20
-29.8914
 10
-78.6245
 20
-30.8681
 10
-78.6185
 20
-30.8978
 10
-78.3387
 20
-31.8074
 10
-78.3267
 20
-31.8358
 10
-77.8746
 20
-32.671
 10
-77.8652
 20
-32.685
 10
-77.2541
 20
-33.4252
 10
-77.252
 20
-33.4273
 10
-76.5138
 20
-34.0362
 10
-76.4944
 20
-34.0493
 10
-75.6646
 20
-34.4977
 10
-75.6306
 20
-34.512
 10
-74.7266
 20
-34.7895
 10
-74.6945
 20
-34.796
 10
-73.7202
 20
-34.8912
 10
-13.7494
 20
-34.8912
 10
-13.5514
 20
-34.9113
 10
-13.459
 20
-34.9394
 10
-13.364
 20
-34.969
 10
-13.2535
 20
-35.0284
 10
-13.193
 20
-35.0613
 10
-13.0434
 20
-35.1844
 10
-13.0302
 20
-35.2004
 10
-12.9205
 20
-35.3341
 10
-12.885
 20
-35.3993
 10
-12.8283
 20
-35.5052
 10
-12.7977
 20
-35.6037
 10
-12.7708
 20
-35.6922
 10
-12.7508
 20
-35.89
 10
-12.7508
 20
-48.5207
 10
-12.6742
 20
-49.4053
 10
-12.6692
 20
-49.4328
 10
-12.4437
 20
-50.2627
 10
-12.4331
 20
-50.2912
 10
-12.0647
 20
-51.0652
 10
-12.0555
 20
-51.0807
 10
-11.5495
 20
-51.7862
 10
-11.548
 20
-51.7879
 10
-10.928
 20
-52.3924
 10
-10.9123
 20
-52.4052
 10
-10.2041
 20
-52.8842
 10
-10.175
 20
-52.9003
 10
-9.39089
 20
-53.2465
 10
-9.36406
 20
-53.2556
 10
-8.50132
 20
-53.4641
 10
-5.95005
 20
-53.8513
 10
-0.937634
 20
-54.5273
 10
4.01213
 20
-55.096
 10
8.62485
 20
-55.6243
 10
11.9845
 20
-56.0687
 10
13.3115
 20
-56.2445
 10
18.0701
 20
-57.0383
 10
20.4959
 20
-57.5291
 10
22.954
 20
-58.0963
 10
25.4475
 20
-58.7507
 10
27.9796
 20
-59.5031
 10
30.5535
 20
-60.3643
 10
33.1726
 20
-61.345
 10
35.8378
 20
-62.455
 10
36.1557
 20
-62.6013
 10
38.5544
 20
-63.706
 10
39.5816
 20
-64.2257
 10
41.3282
 20
-65.1097
 10
44.1635
 20
-66.6781
 10
46.7621
 20
-68.1777
 10
47.5513
 20
-68.5457
 10
48.3938
 20
-68.7714
 10
49.2619
 20
-68.8475
  0
ENDSEC
  0
EOF
